<svg width="24" height="30" viewBox="0 0 24 30" fill="none" xmlns="http://www.w3.org/2000/svg">
<g clip-path="url(#clip0)">
<path d="M12.9095 21.4944C12.0823 21.9963 11.0045 21.7331 10.5023 20.9069L10.2887 21.0368L10.5023 20.9069C8.74166 18.0107 7.42568 15.5837 6.55057 13.5987C5.67268 11.6075 5.25 10.086 5.25 8.99256C5.25 5.269 8.27183 2.25 12 2.25C15.7282 2.25 18.75 5.269 18.75 8.99256C18.75 10.086 18.3273 11.6075 17.4494 13.5987C16.5743 15.5837 15.2583 18.0107 13.4977 20.9069C13.3517 21.1471 13.15 21.3486 12.9095 21.4944ZM12.0074 12.25C13.8039 12.25 15.2606 10.7952 15.2606 9C15.2606 7.20482 13.8039 5.75 12.0074 5.75C10.211 5.75 8.75426 7.20482 8.75426 9C8.75426 10.7952 10.211 12.25 12.0074 12.25Z" fill="#FFCE50" stroke="#FF7C33" stroke-width="0.5"/>
</g>
<defs>
<clipPath id="clip0">
<rect width="24" height="30" fill="white"/>
</clipPath>
</defs>
</svg>
